<svg xmlns="http://www.w3.org/2000/svg" xmlns:xlink="http://www.w3.org/1999/xlink" width="55.334" height="53.832" viewBox="0 0 55.334 53.832"><defs><style>.a{fill:#fff;}.b{clip-path:url(#a);}</style><clipPath id="a"><rect class="a" width="55.334" height="53.832"/></clipPath></defs><g class="b"><path class="a" d="M23.824,19.062a1.814,1.814,0,0,1-.593-.1L1.193,11.219a1.789,1.789,0,0,1,0-3.374L23.231.1a1.773,1.773,0,0,1,1.184,0L46.453,7.846a1.788,1.788,0,0,1,0,3.374L24.417,18.962a1.815,1.815,0,0,1-.593.1M7.178,9.532l16.647,5.849L40.471,9.532,23.824,3.683Z" transform="translate(0.001 0)"/><path class="a" d="M263.111,56.9h3.574V67.621a1.787,1.787,0,1,1-3.574,0Z" transform="translate(-219.035 -47.368)"/><path class="a" d="M19.513,91.706A1.786,1.786,0,0,1,17.236,92.8L1.2,87.176A1.787,1.787,0,0,1,0,85.489V56.9H3.574V84.222l14.845,5.208a1.786,1.786,0,0,1,1.094,2.277" transform="translate(0 -47.367)"/><path class="a" d="M131.555,103.122h3.574v23.23a1.787,1.787,0,0,1-3.574,0Z" transform="translate(-109.517 -85.847)"/><path class="a" d="M154.348,173.341a1.788,1.788,0,0,1-1.751-2.14l1.6-7.984a1.783,1.783,0,0,1,.488-.912l17.564-17.564a4.049,4.049,0,0,1,5.72,0l3.193,3.195a4.051,4.051,0,0,1,0,5.718l-17.566,17.564a1.791,1.791,0,0,1-.913.488l-7.984,1.6a1.548,1.548,0,0,1-.348.038m3.243-8.887-.965,4.822,4.825-.962,17.18-17.183a.47.47,0,0,0,0-.665l-3.192-3.195a.531.531,0,0,0-.667,0Z" transform="translate(-127.005 -119.51)"/></g></svg>