<svg xmlns="http://www.w3.org/2000/svg" xmlns:xlink="http://www.w3.org/1999/xlink" width="55" height="55" viewBox="0 0 55 55"><defs><style>.a{fill:#fff;}.b{clip-path:url(#a);}</style><clipPath id="a"><rect class="a" width="55" height="55" transform="translate(0 0.291)"/></clipPath></defs><g transform="translate(0 -0.291)"><g class="b"><path class="a" d="M111.479,200.86h-3.24v-3.24a1.62,1.62,0,0,0-3.24,0v4.86a1.62,1.62,0,0,0,1.62,1.62h4.86a1.62,1.62,0,1,0,0-3.24" transform="translate(-93.661 -174.834)"/><path class="a" d="M40.5,16.307H53.671a1.62,1.62,0,0,0,1.62-1.62V1.62A1.62,1.62,0,0,0,53.671,0H40.5a1.62,1.62,0,0,0-1.62,1.62V6.587H32.4a1.62,1.62,0,0,0-1.62,1.62V26.026H25.817a12.959,12.959,0,1,0,0,3.24h4.961V47.084A1.62,1.62,0,0,0,32.4,48.7h6.479v4.968a1.62,1.62,0,0,0,1.62,1.62H53.671a1.62,1.62,0,0,0,1.62-1.62V40.6a1.62,1.62,0,0,0-1.62-1.62H40.5a1.62,1.62,0,0,0-1.62,1.62v4.86h-4.86v-16.2h4.86v4.86a1.62,1.62,0,0,0,1.62,1.62H53.671a1.62,1.62,0,0,0,1.62-1.62V21.166a1.62,1.62,0,0,0-1.62-1.62H40.5a1.62,1.62,0,0,0-1.62,1.62v4.86h-4.86V9.827h4.86v4.86a1.62,1.62,0,0,0,1.62,1.62M42.116,3.24h9.935v9.827H42.116ZM12.959,37.365a9.719,9.719,0,1,1,9.719-9.719,9.73,9.73,0,0,1-9.719,9.719m29.157,4.86h9.935v9.827H42.116Zm0-19.438h9.935v9.719H42.116Z"/></g></g></svg>