<svg xmlns="http://www.w3.org/2000/svg" width="643.435" height="514.326" viewBox="0 0 643.435 514.326"><defs><style>.a{fill:#3e48f7;}</style></defs><g transform="translate(0)"><g transform="translate(0.003 191.762)"><path class="a" d="M6325.89-1941.037c.029,2.516-3.673,5.4-6.644,7.572-.306.227-.61.455-.9.667-1.406,1.033-4.183.24-6.329.24q-41.011.021-82.076.014-35.424,0-70.8-.014c-83.443-.05-154.157-63.576-160.978-144.611-3.539-42.14,8.007-81.37,30.573-112.2a153.568,153.568,0,0,1,11.283-13.73,152.858,152.858,0,0,1,15.6-14.779,150.951,150.951,0,0,1,13.5-10.012,156.827,156.827,0,0,1,18.608-10.567,160.388,160.388,0,0,1,15.951-6.691,166.827,166.827,0,0,1,22.773-6.349c1.8-.371,3.63-.728,5.444-1.031a166.3,166.3,0,0,1,26.425-2.129c26.82-.273,53.643-.147,80.481-.064,6.51.02,14.389-1.755,15.377,8.218.375,3.963-1.216,6.35-5.3,7.607h-.029a38.221,38.221,0,0,1-10.5,1.095q-39.457,0-78.863,0a146.381,146.381,0,0,0-42.334,6.256,143.171,143.171,0,0,0-18.188,6.814,147.373,147.373,0,0,0-19.319,10.556,143.36,143.36,0,0,0-13.6,10,146.552,146.552,0,0,0-15.347,14.674,146.608,146.608,0,0,0-10.756,13.472,139.469,139.469,0,0,0-25.557,74.463c-3.427,78.789,53.431,144.249,131.682,151.537,4.8.45,9.635.689,14.453.689q75.223.084,150.477.036c2.415,0,5.415-.853,7.127.259.354.238.739.484,1.128.742C6322.274-1946.256,6325.854-1943.481,6325.89-1941.037Z" transform="translate(-5997.528 2254.83)"/><path class="a" d="M6302.625-2002.84c-.376,2.8-3.774,5.827-6.737,7.54-.135.092-.277.161-.4.239-2.273,1.256-5.749.307-8.7.307q-39.443.021-78.875.014-37.016,0-74.045-.014c-63.265-.047-115.8-48.7-121.465-112.491a121.732,121.732,0,0,1,19.973-77.791,117.678,117.678,0,0,1,10.254-13.427,122.289,122.289,0,0,1,15.354-14.826,120.971,120.971,0,0,1,14.488-10.072,117.912,117.912,0,0,1,23.071-10.591h.028a116.927,116.927,0,0,1,16.491-4.221c7.084-1.271,14.38-1.483,21.585-1.952,5.763-.368,9.557,2.451,9.557,8.3,0,4.03-2.024,6.255-5.287,7.415-.013.015-.013.015-.035,0h-.015a17.6,17.6,0,0,1-3.607.872c-11.1,1.559-22.533,2.465-33.1,5.912a103.59,103.59,0,0,0-11.476,4.511,101.589,101.589,0,0,0-17.025,9.944,103.026,103.026,0,0,0-16.435,14.729,104.655,104.655,0,0,0-10.252,13.393,107.1,107.1,0,0,0-15.853,73.638c7.207,49.67,50.2,88.8,100.812,89.765,52.835,1.012,105.69.337,158.547.415,2.089,0,4.733-.585,6.409.065a3.155,3.155,0,0,1,.661.357C6299.236-2008.807,6302.931-2005.281,6302.625-2002.84Z" transform="translate(-5974.171 2278.61)"/><path class="a" d="M6279.116-2064.444c.034,2.632-3.034,5.708-5.451,7.768a3.1,3.1,0,0,1-1.384.652h-.013a24.181,24.181,0,0,1-4.82.14c-52.315.036-104.625.343-156.94-.078-41.27-.322-75.083-29.379-82.616-69.959a84.074,84.074,0,0,1,12.9-61.938,81.433,81.433,0,0,1,11.1-13.344,80.33,80.33,0,0,1,20.562-14.645,70.936,70.936,0,0,1,6.884-3.082,100.148,100.148,0,0,1,32.854-6.384c30.028-.835,60.1-.287,90.146-.268,1.6,0,3.737-.587,4.718.209,3.021,2.446,7.291,5.073,7.944,8.282a6.373,6.373,0,0,1-3.511,7.3,11.343,11.343,0,0,1-4.865,1.145c-8.052.2-16.1.063-24.138.063-23.362,0-46.7-.043-70.029.016a69.9,69.9,0,0,0-42.433,14.115,66.668,66.668,0,0,0-13.217,13.364,67.354,67.354,0,0,0-13.251,40.546c.048,37.636,30.105,67.432,68.417,67.641,25.217.128,50.427.034,75.648.034q39.041,0,78.067.016c2.139.015,4.676-.319,6.573.229a4.076,4.076,0,0,1,1.257.563C6276.082-2070.338,6279.1-2067.066,6279.116-2064.444Z" transform="translate(-5950.556 2301.896)"/><path class="a" d="M6255.429-2126.874c-.21,3.043-3.671,6.317-6.513,8.493a2.266,2.266,0,0,1-.221.163c-1.613.948-4.562.191-6.848.191h-77.181q-37.792,0-75.579,0c-27.135-.048-48.252-20.629-48.032-46.7a45.854,45.854,0,0,1,14.906-33.778,48.326,48.326,0,0,1,32.749-12.523c6.971-.033,13.941.117,20.9-.052,6.139-.127,11.049,1.566,10.971,8.576-.05,4.048-1.869,6.253-4.628,7.32a16.051,16.051,0,0,1-5.961.855c-6.684-.132-13.392-.18-20.094.014-18.965.583-32.044,13.009-31.852,30.1.2,17.068,13.471,29.509,32.464,29.574,50.377.178,100.751.063,151.137.063,2.38,0,5.314-.753,7.042.307a.125.125,0,0,1,.063.033C6251.572-2132.436,6255.609-2129.212,6255.429-2126.874Z" transform="translate(-5926.982 2325.719)"/><path class="a" d="M6224.869-2202.376c-.113,4.113-1.981,6.172-4.717,7.185a15.836,15.836,0,0,1-4.371.81h-.077c-.761.044-1.557.061-2.336.061q-12.194-.072-24.365-.079-13.376,0-26.717.018h-.071q-5.785.019-11.553.012c-20.362,0-40.727-.046-61.083.032a20.887,20.887,0,0,1-6.863-.854c-2.964-1.027-4.968-3.271-4.818-7.83.219-6.96,5.571-8.076,11.531-8.076q36.411.1,72.816.083,13.29,0,26.587-.032h.328q12.042-.03,24.072-.05c.874,0,1.712.016,2.53.083C6220.954-2210.657,6225.019-2208.838,6224.869-2202.376Z" transform="translate(-5867.287 2325.715)"/><path class="a" d="M6229.135-2232.168c.115,4.769-2.012,6.991-5.251,7.924h-.012a14.823,14.823,0,0,1-3.412.564c-.7.052-1.428.066-2.181.066-6.239-.051-12.483-.066-18.693-.066q-15.794-.025-31.556,0c-2.842.015-5.676.015-8.511.015q-11.532,0-23.051-.015-10.433-.025-20.869,0-7.009.022-14.039.066a18.646,18.646,0,0,1-5.266-.6c-3.176-.9-5.355-3.031-5.457-7.4-.132-7.011,4.812-8.591,10.964-8.574,4.768.015,9.564.015,14.332.03q25.014.053,50.07.052c1.209-.017,2.43-.017,3.64,0q24.32-.025,48.654-.082c.493,0,.961,0,1.417.03C6225.058-2239.924,6229.007-2238.247,6229.135-2232.168Z" transform="translate(-5846.304 2278.569)"/><path class="a" d="M6140.08-2237.811c-8.285,0-16.57.021-24.847-.007-9.479-.032-13.84-2.737-13.357-8.71.674-8.155,6.763-8.294,12.974-8.266,17.365.079,34.722.124,52.087-.024,6.439-.054,12.656.766,12.5,8.689s-6.631,8.43-12.912,8.345C6157.707-2237.9,6148.9-2237.811,6140.08-2237.811Z" transform="translate(-5828.472 2254.843)"/><path class="a" d="M6161.357-2216.916c-.086,3.431-1.514,5.75-3.888,7.025a10.754,10.754,0,0,1-5.037,1.176c-1.174.018-2.374.032-3.552.032-2.543.019-5.1.037-7.617,0-2.7,0-5.379-.015-8.079-.015-6.41,0-12.82.112-19.221-.035a11.2,11.2,0,0,1-4.988-1.158c-2.43-1.291-3.907-3.645-3.979-7.076-.106-5.378,3.361-8.505,8.6-8.59q15.208-.269,30.412-.11c.348,0,.7,0,1.051.017.354-.017.71,0,1.087,0,2.244.012,4.469.059,6.716.093C6158.117-2225.472,6161.519-2222.382,6161.357-2216.916Z" transform="translate(-5823.353 2301.997)"/><path class="a" d="M6109.566-2231.8c-.6,2.915-4.412,6.782-7.41,7.592a5.2,5.2,0,0,1-.6.13,95.575,95.575,0,0,1-24.812,0,3.585,3.585,0,0,1-.738-.177c-2.972-.886-6.609-4.675-7.207-7.561-1.085-5.142,2.844-8.22,8.32-8.312,4.022-.067,8.037-.019,12.052-.019s8.042-.048,12.051.019C6106.682-2240.018,6110.611-2236.891,6109.566-2231.8Z" transform="translate(-5882.309 2278.603)"/><path class="a" d="M6145.152-2246.5c.98-9.973,8.868-8.2,15.376-8.218,26.835-.083,53.667-.209,80.481.064a166.221,166.221,0,0,1,26.417,2.129c1.806.3,3.637.66,5.444,1.031a48.945,48.945,0,0,1-33.2,12.585q-37.77.067-75.566.017h-13.641C6146.351-2240.151,6144.761-2242.538,6145.152-2246.5Z" transform="translate(-5758.361 2254.83)"/><path class="a" d="M6215.593-2230.715a145.238,145.238,0,0,0-18.2-6.818,66.964,66.964,0,0,0,13.473-13.6,160.751,160.751,0,0,1,15.957,6.69A84.421,84.421,0,0,1,6215.593-2230.715Z" transform="translate(-5673.592 2260.82)"/><path class="a" d="M6225.308-2220.841a145.411,145.411,0,0,0-13.6-9.991,105.757,105.757,0,0,0,10.528-13.716,151.762,151.762,0,0,1,13.51,10.012A120.95,120.95,0,0,1,6225.308-2220.841Z" transform="translate(-5650.397 2271.494)"/><path class="a" d="M6445.474-2109.159c-6.819,81.038-77.532,144.565-160.955,144.611q-35.408.03-70.829.02-41.041,0-82.072-.02c-2.146,0-4.9.787-6.324-.243-.291-.2-.595-.436-.9-.659-2.984-2.178-6.671-5.058-6.644-7.576.035-2.445,3.617-5.215,6.644-7.265.39-.258.768-.5,1.13-.744,1.7-1.11,4.705-.256,7.127-.256q75.221,0,150.5-.032c4.809,0,9.648-.244,14.432-.691,78.249-7.285,135.12-72.751,131.673-151.542a139.225,139.225,0,0,0-25.549-74.459,141.411,141.411,0,0,0-10.765-13.472,135.186,135.186,0,0,0,10.687-13.6,157.637,157.637,0,0,1,11.283,13.731C6437.467-2190.527,6449.026-2151.3,6445.474-2109.159Z" transform="translate(-5802.676 2286.824)"/><path class="a" d="M6209.7-2238.174a114.836,114.836,0,0,1,16.507,4.237,84.623,84.623,0,0,1-38.576,9.514c-1.263.014-2.537.014-3.8.014h-.022c-3.239-1.179-5.265-3.4-5.265-7.415,0-5.85,3.816-8.669,9.565-8.3C6195.325-2239.656,6202.608-2239.445,6209.7-2238.174Z" transform="translate(-5704.145 2278.61)"/><path class="a" d="M6230.669-2223.678A118.655,118.655,0,0,1,6216-2213.552a102.065,102.065,0,0,0-17.032-9.95,104.141,104.141,0,0,0,17.23-10.248A123.541,123.541,0,0,1,6230.669-2223.678Z" transform="translate(-5671.046 2288.996)"/><path class="a" d="M6407.933-2133.031c-5.658,63.792-58.178,112.438-121.465,112.487q-37.027.053-74.045.019-39.426,0-78.846-.019c-2.958,0-6.461.95-8.721-.3-.134-.079-.283-.147-.411-.234-2.963-1.718-6.359-4.746-6.708-7.55-.335-2.434,3.354-5.96,6.039-7.963a3.838,3.838,0,0,1,.669-.357c1.684-.649,4.312-.062,6.415-.062,52.843-.079,105.706.6,158.539-.417,50.634-.968,93.617-40.1,100.835-89.77a107.179,107.179,0,0,0-15.881-73.654,106.908,106.908,0,0,0-10.241-13.387,139.255,139.255,0,0,0,13.615-10.008,122.31,122.31,0,0,1,10.239,13.422A121.771,121.771,0,0,1,6407.933-2133.031Z" transform="translate(-5802.741 2304.396)"/><path class="a" d="M6142.245-2217.09c.639-3.209,4.923-5.837,7.922-8.282.987-.8,3.119-.209,4.717-.209,30.071-.02,60.125-.568,90.147.268a100.234,100.234,0,0,1,32.869,6.384,73.191,73.191,0,0,1,6.876,3.082,120.825,120.825,0,0,1-37.793,6.056q-37,.021-74.03,0h-27.213A6.328,6.328,0,0,1,6142.245-2217.09Z" transform="translate(-5763.252 2301.896)"/><path class="a" d="M6368.892-2141.129c-7.524,40.58-41.322,69.637-82.606,69.959-52.309.419-104.626.114-156.95.081a23.764,23.764,0,0,1-4.81-.147,3.267,3.267,0,0,1-1.407-.643c-2.4-2.067-5.463-5.144-5.448-7.775.035-2.621,3.031-5.893,5.591-7.618a4.04,4.04,0,0,1,1.264-.562c1.9-.548,4.434-.21,6.572-.226q39.039-.047,78.073-.018c25.217,0,50.434.1,75.649-.033,38.306-.21,68.362-30.009,68.4-67.637A67.484,67.484,0,0,0,6340-2196.3h-.023a66.6,66.6,0,0,0-13.208-13.362,144.566,144.566,0,0,0,18.126-6.75,82.094,82.094,0,0,1,11.1,13.343A84.031,84.031,0,0,1,6368.892-2141.129Z" transform="translate(-5802.809 2317.104)"/><path class="a" d="M6208.485-2118.029q37.784,0,75.567-.009c27.148-.048,48.265-20.618,48.038-46.7-.229-26.009-20.982-46.186-47.662-46.307-6.957-.027-13.933.115-20.9-.033-6.118-.137-11.042,1.56-10.957,8.578.071,6.529,4.775,8.256,10.572,8.158,6.708-.117,13.41-.181,20.1.022,18.965.574,32.04,13.009,31.839,30.108-.191,17.062-13.457,29.492-32.457,29.563-50.376.185-100.753.062-151.138.069-2.409,0-5.37-.773-7.106.333-2.805,1.81-6.842,5.023-6.663,7.377.212,3.032,3.679,6.31,6.523,8.487,1.534,1.185,4.653.348,7.063.348Q6169.894-2118.018,6208.485-2118.029Z" transform="translate(-5802.741 2325.72)"/><path class="a" d="M6253.566-2203.021c.134,4.577-1.848,6.8-4.819,7.83a20.709,20.709,0,0,1-6.841.854c-20.378-.078-40.75-.032-61.105-.032q-5.778,0-11.562-.012h-.071q-13.351,0-26.708-.018-12.18,0-24.364.079c-.788,0-1.592-.016-2.33-.061h-.093a15.814,15.814,0,0,1-4.365-.81c-2.729-1.013-4.6-3.073-4.7-7.185-.163-6.462,3.9-8.281,9.1-8.638.816-.067,1.654-.083,2.53-.083,8.021.016,16.028.03,24.065.05h.319q13.293.02,26.6.032,36.4,0,72.794-.083C6248-2211.1,6253.338-2209.98,6253.566-2203.021Z" transform="translate(-5820.752 2325.715)"/><path class="a" d="M6235.252-2231.608c-.084,4.366-2.251,6.5-5.42,7.4h-.022a18.557,18.557,0,0,1-5.266.6q-7.012-.048-14.026-.066-10.434-.025-20.881,0-11.533,0-23.05.015c-2.828,0-5.67,0-8.5-.015q-15.784,0-31.568,0-9.339,0-18.672.066c-.761,0-1.487-.014-2.2-.066a14.735,14.735,0,0,1-3.411-.564c-3.262-.921-5.385-3.156-5.273-7.924.128-6.079,4.073-7.756,9.218-7.983.468-.03.93-.03,1.413-.03q24.322.07,48.664.082c1.2-.017,2.429-.017,3.64,0q25.044,0,50.069-.052c4.775-.016,9.565-.016,14.326-.03C6230.458-2240.2,6235.409-2238.619,6235.252-2231.608Z" transform="translate(-5836.366 2278.569)"/><path class="a" d="M6148.487-2237.811c8.286,0,16.563.021,24.848-.007,9.486-.032,13.85-2.737,13.351-8.71-.676-8.155-6.756-8.294-12.96-8.266-17.365.079-34.73.124-52.087-.024-6.453-.054-12.67.766-12.513,8.689s6.635,8.43,12.923,8.345C6130.867-2237.9,6139.675-2237.811,6148.487-2237.811Z" transform="translate(-5816.67 2254.843)"/><path class="a" d="M6142.247-2208.692c6.411-.005,12.82.106,19.229-.039,5.272-.121,8.846-2.857,8.966-8.23s-3.36-8.506-8.611-8.6q-19.623-.341-39.265,0c-5.242.1-8.652,3.185-8.495,8.64.14,5.451,3.65,8.1,8.938,8.2C6129.417-2208.589,6135.833-2208.686,6142.247-2208.692Z" transform="translate(-5808.659 2301.991)"/><path class="a" d="M6176.832-2240.141c-4.023,0-8.029-.059-12.045.018-5.478.1-9.4,3.236-8.355,8.333.633,3.109,4.931,7.3,8.007,7.708a95.276,95.276,0,0,0,24.812,0c3.069-.4,7.311-4.612,7.958-7.725,1.087-5.157-2.871-8.223-8.328-8.317C6184.867-2240.2,6180.854-2240.143,6176.832-2240.141Z" transform="translate(-5740.257 2278.6)"/></g><path class="a" d="M6043.063-2216.408a145.093,145.093,0,0,0,18.135,6.75,66.7,66.7,0,0,0-13.217,13.362,156.726,156.726,0,0,1-16.022-6.769A82.1,82.1,0,0,1,6043.063-2216.408Z" transform="translate(-5941.725 2508.863)"/><path class="a" d="M6029.982-2224.25a141.146,141.146,0,0,0,13.6,10.022,105.429,105.429,0,0,0-10.251,13.393,159.457,159.457,0,0,1-13.593-9.993A118.363,118.363,0,0,1,6029.982-2224.25Z" transform="translate(-5961.538 2496.155)"/><path class="a" d="M6238.332-2310.97q-39.431,0-78.854,0c-77.5.083-141.773,60.452-145.1,136.25-1.463,33.666,8.079,64.912,25.636,90.217a138.547,138.547,0,0,0,10.679,13.6,144.833,144.833,0,0,0-10.771,13.474,151.407,151.407,0,0,1-11.19-13.346,153.411,153.411,0,0,1-30.575-79.55c-7.3-86.626,49.24-160.869,133.73-175.36a167.929,167.929,0,0,1,26.411-2.141c26.836-.273,53.658-.131,80.5-.066,6.495.015,14.381-1.738,15.377,8.232C6254.8-2313.275,6250.261-2310.97,6238.332-2310.97Z" transform="translate(-5997.526 2328)"/><path class="a" d="M6111.37-2202.51c-.05,4.048-1.861,6.253-4.618,7.32h-27.384a162.926,162.926,0,0,1-32.628-3.32,48.359,48.359,0,0,1,32.756-12.523c6.977-.033,13.939.117,20.9-.052C6106.539-2211.213,6111.449-2209.52,6111.37-2202.51Z" transform="translate(-5917.759 2517.483)"/><path class="a" d="M6195.632-2203.687c.027,2.538-3.652,5.406-6.63,7.6-.313.222-.626.45-.911.66-1.392,1.031-4.169.24-6.323.24h-99.054c-2.964-1.027-4.968-3.271-4.818-7.83.219-6.96,5.571-8.076,11.531-8.076q36.411.1,72.816.083c.824-.067,1.664-.083,2.531-.083q12.041.023,24.057.05a1.913,1.913,0,0,0,.172.112C6192.021-2208.9,6195.6-2206.129,6195.632-2203.687Z" transform="translate(-5867.287 2517.478)"/><path class="a" d="M6043.994-2233.75a103.182,103.182,0,0,0,17.216,10.248,101.136,101.136,0,0,0-17.024,9.95,119.7,119.7,0,0,1-14.68-10.126A120.632,120.632,0,0,1,6043.994-2233.75Z" transform="translate(-5945.693 2480.758)"/><path class="a" d="M6143.2-2304.994c0,5.38-3.609,7.56-8.937,8.3-11.105,1.551-22.532,2.468-33.1,5.914-48.857,15.957-78.485,65-71.046,116.2a103.9,103.9,0,0,0,15.645,41.515,107.009,107.009,0,0,0,10.531,13.713,145.575,145.575,0,0,0-13.6,9.994,122.278,122.278,0,0,1-10.431-13.7,124.4,124.4,0,0,1-19.851-57.356c-5.491-62.08,38.419-119.9,99.667-130.908,7.075-1.275,14.374-1.484,21.578-1.968C6139.419-2313.668,6143.2-2310.831,6143.2-2304.994Z" transform="translate(-5974.172 2351.779)"/><path class="a" d="M6186.591-2217.09a6.367,6.367,0,0,1-3.508,7.3h-27.207q-37,0-74.038,0a120.771,120.771,0,0,1-37.794-6.056,72.936,72.936,0,0,1,6.877-3.082,100.184,100.184,0,0,1,32.863-6.384c30.027-.835,60.1-.287,90.138-.268,1.615,0,3.746-.587,4.727.209C6181.668-2222.927,6185.937-2220.3,6186.591-2217.09Z" transform="translate(-5922.138 2493.658)"/><path class="a" d="M6151.807-2217.637c-.369,2.806-3.772,5.848-6.742,7.554a3.988,3.988,0,0,1-.406.247c-2.273,1.242-5.755.308-8.7.308h-26.987c-2.43-1.292-3.907-3.645-3.979-7.079-.106-5.38,3.361-8.507,8.6-8.587q15.208-.264,30.412-.116l.389-.29a2.881,2.881,0,0,1,.662-.354,2.847,2.847,0,0,1,.66.354c.127.1.264.2.391.29,0,.017.014.017.036.017C6148.774-2223.23,6152.091-2219.924,6151.807-2217.637Z" transform="translate(-5823.348 2493.396)"/><path class="a" d="M6091.488-2231.824c0,4.03-2.031,6.255-5.277,7.415-.022.015-.022.015-.043,0h-.012c-1.246,0-2.5,0-3.74-.014a84.382,84.382,0,0,1-38.567-9.53,116.961,116.961,0,0,1,16.506-4.221c7.07-1.271,14.366-1.483,21.581-1.952C6087.694-2240.493,6091.488-2237.674,6091.488-2231.824Z" transform="translate(-5922.454 2470.375)"/><path class="a" d="M6109.566-2231.8c-.6,2.915-4.412,6.782-7.41,7.592q-13.09,0-26.154-.048c-2.972-.886-6.609-4.675-7.207-7.561-1.085-5.142,2.844-8.22,8.32-8.312,4.022-.067,8.037-.019,12.052-.019s8.042-.048,12.051.019C6106.682-2240.018,6110.611-2236.891,6109.566-2231.8Z" transform="translate(-5882.309 2470.365)"/><path class="a" d="M6206.633-2281.821c-8.042.193-16.107.079-24.143.079-23.362,0-46.691-.065-70.029,0-38.7.133-68.923,30.012-68.9,68.03a67.141,67.141,0,0,0,13.138,40.1,67.151,67.151,0,0,0,13.471,13.6,143.945,143.945,0,0,0-18.176,6.814,82.83,82.83,0,0,1-11.247-13.727,87.43,87.43,0,0,1-12.855-32.17c-7.182-38.823,14.227-78.473,51.45-93.006a99.674,99.674,0,0,1,32.863-6.365c30.026-.857,60.1-.292,90.138-.292,1.611,0,3.744-.579,4.726.226,3.013,2.435,7.283,5.079,7.945,8.269C6216.043-2285.123,6211.978-2281.949,6206.633-2281.821Z" transform="translate(-5950.551 2375.066)"/><path class="a" d="M6174.874-2232.315c.034,2.625-3.028,5.7-5.444,7.766a3.161,3.161,0,0,1-1.393.633h-.007a24.2,24.2,0,0,1-4.824.141q-25.507.022-51.023.08c-5.308.018-10.588.032-15.888.032-3.176-.9-5.355-3.03-5.457-7.394-.132-7.013,4.812-8.591,10.964-8.577,4.768.013,9.564.013,14.332.032.467-.032.931-.032,1.415-.032q24.327.071,48.655.08c.192-.145.369-.274.56-.4a4.208,4.208,0,0,1,1.267-.566h.007a4.026,4.026,0,0,1,1.245.566c.193.127.368.256.562.4C6172.267-2237.746,6174.857-2234.767,6174.874-2232.315Z" transform="translate(-5846.304 2469.785)"/><path class="a" d="M6164.662-2191.195q-37.782,0-75.571-.013c-27.144-.045-48.261-20.612-48.033-46.7.227-26.008,20.975-46.189,47.654-46.307,6.972-.032,13.942.117,20.9-.039,6.141-.131,11.048,1.558,10.963,8.578-.063,6.534-4.775,8.26-10.571,8.158-6.7-.112-13.4-.176-20.094.025-18.967.578-32.046,13.013-31.854,30.11.2,17.063,13.471,29.495,32.463,29.563,50.384.187,100.761.062,151.138.072,2.416,0,5.373-.779,7.113.331,2.807,1.809,6.842,5.023,6.672,7.378-.221,3.031-3.683,6.308-6.529,8.485-1.542,1.184-4.663.351-7.072.351Q6203.248-2191.19,6164.662-2191.195Z" transform="translate(-5926.98 2398.894)"/><path class="a" d="M6150.661-2267.537c-20.358,0-40.72-.047-61.084.032-6.225.025-11.917-1.078-11.681-8.69.227-6.957,5.563-8.073,11.539-8.06q61.9.134,123.8-.01c6.366-.019,11.816,1.235,11.646,8.721-.169,7.01-5.543,8.094-11.511,8.055C6192.47-2267.609,6171.572-2267.537,6150.661-2267.537Z" transform="translate(-5867.287 2398.883)"/><path class="a" d="M6159.505-2296.832c-19.312,0-38.631-.083-57.942.054-5.834.041-10.566-1.484-10.724-7.993-.147-7.027,4.813-8.6,10.958-8.58q58.34.145,116.69,0c5.833-.015,10.5,1.391,10.644,8.014.178,7.162-4.725,8.6-10.872,8.559C6198.678-2296.915,6179.089-2296.823,6159.505-2296.832Z" transform="translate(-5846.299 2351.74)"/><path class="a" d="M6140.08-2310.979c-8.285,0-16.57.017-24.847-.012-9.479-.03-13.84-2.731-13.357-8.708.674-8.157,6.763-8.3,12.974-8.267,17.365.078,34.722.122,52.087-.022,6.439-.059,12.656.762,12.5,8.682s-6.631,8.438-12.912,8.353C6157.707-2311.068,6148.9-2310.979,6140.08-2310.979Z" transform="translate(-5828.468 2328.018)"/><path class="a" d="M6133.2-2281.86c-6.408-.009-12.825.1-19.241-.045-5.272-.116-8.846-2.854-8.96-8.229s3.361-8.505,8.605-8.593q19.641-.339,39.27,0c5.251.093,8.654,3.185,8.505,8.641s-3.66,8.1-8.945,8.2C6146.022-2281.759,6139.613-2281.859,6133.2-2281.86Z" transform="translate(-5823.352 2375.162)"/><path class="a" d="M6089.166-2313.307c4.021,0,8.042-.063,12.066.014,5.464.1,9.386,3.236,8.341,8.332-.646,3.109-4.931,7.3-8.014,7.71a95.562,95.562,0,0,1-24.8,0c-3.062-.409-7.3-4.612-7.96-7.728-1.085-5.159,2.857-8.217,8.32-8.317C6081.131-2313.37,6085.167-2313.313,6089.166-2313.307Z" transform="translate(-5882.308 2351.771)"/><path class="a" d="M6445.474-2150.323a153.467,153.467,0,0,1-30.565,79.55,151.494,151.494,0,0,1-11.206,13.346,163.437,163.437,0,0,1-15.8,14.763,154.369,154.369,0,0,1-13.6,9.973,156.9,156.9,0,0,1-18.429,10.491,156.018,156.018,0,0,1-16.016,6.771h-.015a157.918,157.918,0,0,1-22.7,6.393h-.013a162.467,162.467,0,0,1-32.612,3.323h-152.9c-2.146,0-4.9.791-6.324-.242-.291-.207-.595-.433-.9-.66-2.984-2.188-6.671-5.061-6.644-7.59.035-2.45,3.617-5.225,6.644-7.251a1.28,1.28,0,0,0,.17-.116c.335-.224.648-.437.96-.628,1.7-1.11,4.705-.274,7.127-.274q75.221,0,150.5-.032c4.809,0,9.648-.241,14.432-.675a149.163,149.163,0,0,0,29.052-5.609,144.856,144.856,0,0,0,18.134-6.75,140.632,140.632,0,0,0,19.3-10.543,138.7,138.7,0,0,0,13.614-10.007,141.606,141.606,0,0,0,15.263-14.809,135.882,135.882,0,0,0,10.687-13.6c17.55-25.3,27.093-56.551,25.626-90.217-3.3-75.8-67.592-136.167-145.1-136.25q-39.431-.029-78.861,0c-11.921,0-16.449-2.3-15.824-8.688.98-9.97,8.867-8.218,15.376-8.232,26.844-.065,53.666-.207,80.49.066a167.762,167.762,0,0,1,26.409,2.141C6396.243-2311.192,6452.781-2236.949,6445.474-2150.323Z" transform="translate(-5802.676 2328)"/><path class="a" d="M6407.932-2180.42a124.453,124.453,0,0,1-19.859,57.356,122.385,122.385,0,0,1-10.422,13.7,121.036,121.036,0,0,1-15.306,14.667,116.925,116.925,0,0,1-14.658,10.118,118.86,118.86,0,0,1-23.44,10.609,120.922,120.922,0,0,1-37.792,6.057q-37.006.029-74.039,0h-78.854c-2.943,0-6.445.936-8.712-.306-.127-.084-.277-.147-.4-.24-2.962-1.709-6.366-4.758-6.707-7.561-.321-2.292,2.918-5.511,5.541-7.654h.092c.009,0,.029,0,.029-.018l.376-.291a3.461,3.461,0,0,1,.668-.355c1.678-.64,4.313-.052,6.409-.062,52.849-.063,105.712.6,158.534-.4a100.888,100.888,0,0,0,41.268-9.723,105.288,105.288,0,0,0,17.23-10.246,106.735,106.735,0,0,0,16.16-14.589,105.653,105.653,0,0,0,10.513-13.713,103.692,103.692,0,0,0,15.673-41.515c7.428-51.2-22.187-100.243-71.05-116.2-10.559-3.446-22.006-4.363-33.1-5.914-5.33-.737-8.945-2.917-8.945-8.3,0-5.837,3.792-8.674,9.548-8.3,7.226.483,14.508.692,21.6,1.968C6369.515-2300.323,6413.417-2242.5,6407.932-2180.42Z" transform="translate(-5802.741 2351.779)"/><path class="a" d="M6368.892-2199.1a87.407,87.407,0,0,1-12.845,32.17,83.82,83.82,0,0,1-11.234,13.727,83.184,83.184,0,0,1-19.95,14.571,84.566,84.566,0,0,1-38.577,9.508c-1.257.018-2.537.018-3.794.018h-.029q-14.94.119-29.885.142h-.028q-13.077.048-26.154.052-15.059,0-30.127-.036h-.005c-5.3,0-10.582-.016-15.874-.029h-.02q-25.508-.048-51.032-.083a23.622,23.622,0,0,1-4.8-.144h-.013a3.162,3.162,0,0,1-1.407-.629c-2.4-2.065-5.463-5.144-5.448-7.769.035-2.45,2.612-5.427,5.029-7.231.2-.148.376-.279.562-.406a4.167,4.167,0,0,1,1.264-.565h.013c1.9-.545,4.421-.209,6.559-.209q39.039-.067,78.073-.028c25.217,0,50.434.11,75.649-.039a69.432,69.432,0,0,0,41.8-13.937,66.8,66.8,0,0,0,13.464-13.6,67.1,67.1,0,0,0,13.137-40.1c.051-38.017-30.176-67.9-68.892-68.03-23.336-.065-46.675,0-70.011,0-8.057,0-16.1.114-24.157-.079-5.351-.129-9.415-3.3-8.361-8.443.645-3.19,4.908-5.834,7.927-8.269.981-.8,3.112-.226,4.718-.226,30.062,0,60.119-.565,90.146.292a99.722,99.722,0,0,1,32.86,6.365C6354.683-2277.569,6376.082-2237.918,6368.892-2199.1Z" transform="translate(-5802.809 2375.066)"/><path class="a" d="M6332.089-2237.916a45.2,45.2,0,0,1-14.843,34.122,48.94,48.94,0,0,1-33.2,12.581q-37.783.07-75.567.019h-13.626q-13.635,0-27.229-.019-9.091.028-18.183,0h-18.14c-2.3,0-5.244.762-6.857-.209a.762.762,0,0,1-.22-.126c-2.821-2.194-6.3-5.467-6.516-8.494-.164-2.19,3.3-5.127,6.061-6.98.206-.141.413-.271.6-.4a.155.155,0,0,1,.073-.034c1.719-1.063,4.654-.287,7.034-.287,50.392-.018,100.775.111,151.146-.083,19-.064,32.264-12.492,32.464-29.56.185-17.1-12.9-29.54-31.854-30.1-6.686-.211-13.415-.147-20.094-.032-5.8.092-10.509-1.629-10.586-8.157-.086-7.027,4.853-8.72,10.977-8.576,6.958.147,13.92,0,20.9.032C6311.1-2284.1,6331.868-2263.926,6332.089-2237.916Z" transform="translate(-5802.734 2398.897)"/><path class="a" d="M6180.8-2267.537c20.363,0,40.727-.047,61.091.032,6.216.025,11.915-1.078,11.674-8.69-.214-6.957-5.564-8.073-11.539-8.06q-61.9.134-123.789-.01c-6.367-.019-11.809,1.235-11.632,8.721.155,7.01,5.521,8.094,11.5,8.055C6138.991-2267.609,6159.9-2267.537,6180.8-2267.537Z" transform="translate(-5820.751 2398.883)"/><path class="a" d="M6166.6-2296.832c19.312,0,38.633-.083,57.949.054,5.828.041,10.569-1.484,10.716-7.993.149-7.027-4.794-8.6-10.948-8.58q-58.355.145-116.7,0c-5.82-.015-10.489,1.391-10.646,8.014-.161,7.162,4.741,8.6,10.872,8.559C6127.425-2296.915,6147.009-2296.823,6166.6-2296.832Z" transform="translate(-5836.362 2351.74)"/><path class="a" d="M6148.487-2310.979c8.286,0,16.563.017,24.848-.012,9.486-.03,13.85-2.731,13.351-8.708-.676-8.157-6.756-8.3-12.96-8.267-17.365.078-34.73.122-52.087-.022-6.453-.059-12.67.762-12.513,8.682s6.635,8.438,12.923,8.353C6130.867-2311.068,6139.675-2310.979,6148.487-2310.979Z" transform="translate(-5816.665 2328.018)"/><path class="a" d="M6142.247-2281.86c6.411-.009,12.82.1,19.229-.045,5.272-.116,8.846-2.854,8.966-8.229s-3.36-8.505-8.611-8.593q-19.623-.339-39.265,0c-5.242.093-8.652,3.185-8.495,8.641.14,5.451,3.65,8.1,8.938,8.2C6129.417-2281.759,6135.833-2281.859,6142.247-2281.86Z" transform="translate(-5808.649 2375.162)"/><path class="a" d="M6176.832-2313.307c-4.023,0-8.029-.063-12.045.014-5.478.1-9.4,3.236-8.355,8.332.633,3.109,4.931,7.3,8.007,7.71a95.618,95.618,0,0,0,24.812,0c3.069-.409,7.311-4.612,7.958-7.728,1.087-5.159-2.871-8.217-8.328-8.317C6184.867-2313.37,6180.854-2313.313,6176.832-2313.307Z" transform="translate(-5740.257 2351.771)"/></g></svg>