<svg xmlns="http://www.w3.org/2000/svg" width="21.959" height="21.959" viewBox="0 0 21.959 21.959"><defs><style>.a{fill:#eff1f7;}</style></defs><path class="a" d="M14.979,4A10.979,10.979,0,1,0,25.959,14.979,11.012,11.012,0,0,0,14.979,4Zm2.1,9.058A12.423,12.423,0,0,0,22.207,9.49a8.8,8.8,0,0,1,1.83,5.215,18.745,18.745,0,0,0-6.313-.183A5.1,5.1,0,0,0,17.084,13.058Zm-2.1-7.228a9.485,9.485,0,0,1,6.039,2.287,9.763,9.763,0,0,1-4.758,3.294A38.742,38.742,0,0,0,12.875,6.1,8.307,8.307,0,0,1,14.979,5.83Zm-3.934.915A40.033,40.033,0,0,1,14.43,11.96a36.515,36.515,0,0,1-8.417,1.1A9.3,9.3,0,0,1,11.045,6.745ZM5.83,14.979v-.091a35.657,35.657,0,0,0,9.515-1.281c.183.457.457.823.64,1.281-3.843,1.1-6.679,4.392-7.868,6.039A8.61,8.61,0,0,1,5.83,14.979Zm9.149,9.149A9.153,9.153,0,0,1,9.4,22.207c1.006-1.464,3.751-4.758,7.32-5.581a32.035,32.035,0,0,1,1.83,6.771A9.209,9.209,0,0,1,14.979,24.129Zm5.307-1.647a31.764,31.764,0,0,0-1.738-6.13,16.969,16.969,0,0,1,5.4.274A8.928,8.928,0,0,1,20.286,22.482Z" transform="translate(-4 -4)"/></svg>