<svg xmlns="http://www.w3.org/2000/svg" width="33.887" height="28.172" viewBox="0 0 33.887 28.172"><defs><style>.a{fill:#eff1f7;}</style></defs><g transform="translate(0.113 -5.97)"><path class="a" d="M33.351,14.874,24.9,6.423a1.362,1.362,0,0,0-1.972,0L16.87,12.48,10.813,6.423,10.6,6.211c-.07,0-.07-.07-.141-.07s-.07-.07-.141-.07-.07,0-.141-.07H9.4c-.07,0-.07,0-.141.07-.07,0-.07.07-.141.07s-.07.07-.141.07l-.211.211L.319,14.874a1.427,1.427,0,0,0-.07,1.972l15.495,16.9a1.532,1.532,0,0,0,2.113,0l15.495-16.9A1.361,1.361,0,0,0,33.351,14.874Zm-22.115-.916v-3.1l4.226,4.226V19.03Zm7.043,1.056L22.5,10.789v3.1l-4.226,5.071Zm-9.86-4.226v3.029L4.756,17.48,3.277,15.86ZM16.87,30.651,6.728,19.593l3.029-3.029,6.057,7.254.07.07.141.141.07.07c.07.07.07.07.141.07a.069.069,0,0,1,.07.07c.07,0,.141.07.211.07h.7c.07,0,.141-.07.211-.07a.069.069,0,0,0,.07-.07.246.246,0,0,0,.141-.07l.07-.07.141-.141.07-.07,6.057-7.254,3.029,3.029ZM28.984,17.48l-3.662-3.592V10.86l5.071,5.071Z" transform="translate(0 -0.03)"/><path class="a" d="M22.094,9.2a1.094,1.094,0,0,0,0,2.188h0a1.094,1.094,0,1,0,0-2.188Z" transform="translate(10.219 -3.143)"/></g></svg>