<svg xmlns="http://www.w3.org/2000/svg" width="21.959" height="23.514" viewBox="0 0 21.959 23.514"><defs><style>.a{fill:#eff1f7;}</style></defs><path class="a" d="M13.149,27.854l-3.2-4.3H4V8H22.3V23.554H16.352Zm-7.32-6.13h5.032l2.287,3.019,2.287-3.019h5.032V9.83H5.83Z" transform="translate(-4 -4.34)"/><path class="a" d="M26.3,19.554h-1.83V5.83H8V4H26.3Z" transform="translate(-4.34 -4)"/><path class="a" d="M15.575,20.234h-1.83A2.7,2.7,0,0,1,11,17.49V12.915a.915.915,0,0,1,1.83,0v1.83h2.745a.915.915,0,0,1,0,1.83H12.83v.915a.864.864,0,0,0,.915.915h1.83a.915.915,0,0,1,0,1.83Z" transform="translate(-4.595 -4.68)"/></svg>