<svg xmlns="http://www.w3.org/2000/svg" width="20.22" height="20.129" viewBox="0 0 20.22 20.129"><defs><style>.a{fill:#eff1f7;}</style></defs><path class="a" d="M19.182,25.129H10.856A5.916,5.916,0,0,1,5,19.182V10.856A5.916,5.916,0,0,1,10.947,5h8.326a5.935,5.935,0,0,1,5.947,5.947v8.326A6.057,6.057,0,0,1,19.182,25.129ZM10.947,6.83A4.1,4.1,0,0,0,6.83,10.947v8.326A4.081,4.081,0,0,0,10.947,23.3h8.326a4.1,4.1,0,0,0,4.117-4.117V10.856A4.224,4.224,0,0,0,19.182,6.83Z" transform="translate(-5 -5)"/><path class="a" d="M15.49,20.979a5.49,5.49,0,1,1,5.49-5.49A5.506,5.506,0,0,1,15.49,20.979Zm0-9.149a3.66,3.66,0,1,0,3.66,3.66A3.671,3.671,0,0,0,15.49,11.83Z" transform="translate(-5.425 -5.425)"/><path class="a" d="M21.823,9.2a.823.823,0,1,0,0,1.647h0a.823.823,0,0,0,0-1.647Z" transform="translate(-6.361 -5.357)"/></svg>