<svg xmlns="http://www.w3.org/2000/svg" width="39.675" height="24.797" viewBox="0 0 39.675 24.797"><defs><style>.a{fill:#edeff5;}</style></defs><path class="a" d="M2.48,6V22.97l-1.9,2.906v.039A3.309,3.309,0,0,0,0,27.7a3.1,3.1,0,0,0,3.1,3.1H37.2a2.387,2.387,0,0,0,2.48-2.48v-12.4a2.387,2.387,0,0,0-2.48-2.48H29.756V6Zm2.48,2.48H27.276v4.959H19.837a2.387,2.387,0,0,0-2.48,2.48v6.2H4.959Zm14.878,7.439H37.2v12.4H19.837ZM4.417,24.6H17.358v3.72H3.1a.751.751,0,0,1-.62-.62.712.712,0,0,1,.155-.426Zm21.62,0v2.48H31V24.6Z" transform="translate(0 -6)"/></svg>