<svg xmlns="http://www.w3.org/2000/svg" width="27" height="27" viewBox="0 0 27 27"><defs><style>.a{opacity:0.266;}.b{fill:#eff1f7;}</style></defs><g class="a" transform="translate(-6 -6)"><circle class="b" cx="1.5" cy="1.5" r="1.5" transform="translate(15 25)"/><circle class="b" cx="1.5" cy="1.5" r="1.5" transform="translate(19 21)"/><path class="b" d="M32.325,28.125,24,16.5V9h1.5V6h-12V9H15v7.5L6.675,28.125A2.88,2.88,0,0,0,6,30a3.009,3.009,0,0,0,3,3H30a3.009,3.009,0,0,0,3-3A2.88,2.88,0,0,0,32.325,28.125ZM21,9v6H18V9ZM9,30H9l.075-.075L17.625,18h3.75l8.55,11.925L30,30H9Z"/></g></svg>