<svg xmlns="http://www.w3.org/2000/svg" width="75" height="75" viewBox="0 0 75 75"><defs><style>.a,.b,.d{fill:none;}.a{stroke:#fff;stroke-width:3px;}.b{stroke-miterlimit:10;}.c,.e{stroke:none;}.e{fill:#fff;}</style></defs><g class="a" transform="translate(75) rotate(90)"><rect class="c" width="75" height="75" rx="13"/><rect class="d" x="1.5" y="1.5" width="72" height="72" rx="11.5"/></g><g class="b" transform="translate(4761.378 12117.556) rotate(180)"><path class="c" d="M4719.105,12070.158l11.693,7.741a2.24,2.24,0,0,1,0,3.6l-11.693,7.773c-1.211.806-2.73-.2-2.73-1.8v-15.514C4716.378,12070.357,4717.894,12069.357,4719.105,12070.158Z"/><path class="e" d="M 4719.3779296875 12073.9365234375 L 4719.3779296875 12085.4892578125 L 4728.08544921875 12079.701171875 L 4719.3779296875 12073.9365234375 M 4718.19873046875 12069.8759765625 C 4718.50146484375 12069.8759765625 4718.8125 12069.96484375 4719.10546875 12070.158203125 L 4730.798828125 12077.8994140625 C 4732.0068359375 12078.69921875 4732.0087890625 12080.6953125 4730.80126953125 12081.498046875 L 4719.10791015625 12089.271484375 C 4718.81396484375 12089.466796875 4718.50244140625 12089.5556640625 4718.1982421875 12089.5556640625 C 4717.24951171875 12089.5556640625 4716.3779296875 12088.6875 4716.3779296875 12087.47265625 L 4716.3779296875 12071.958984375 C 4716.3779296875 12070.7451171875 4717.2490234375 12069.8759765625 4718.19873046875 12069.8759765625 Z"/></g></svg>