<svg xmlns="http://www.w3.org/2000/svg" xmlns:xlink="http://www.w3.org/1999/xlink" width="35.44" height="35.373" viewBox="0 0 35.44 35.373"><defs><style>.a{fill:#edeff5;}.b{clip-path:url(#a);}</style><clipPath id="a"><rect class="a" width="35.44" height="35.373" transform="translate(0 -6)"/></clipPath></defs><g transform="translate(0 6)"><g class="b" transform="translate(0 0)"><path class="a" d="M24.269.354H16.7A2.447,2.447,0,0,0,14.183,2.7v9.4L16.7,9.753h7.564A2.448,2.448,0,0,0,26.791,7.4V2.7A2.448,2.448,0,0,0,24.269.354m0,7.049H16.7V2.7h7.564Z" transform="translate(8.649 -3.869)"/><path class="a" d="M15.13,24.97v2.053H2.522V2.35l12.608.031V8.526l2.522,1.632V2.35A2.44,2.44,0,0,0,15.13,0H2.522A2.439,2.439,0,0,0,0,2.35V27.023a2.44,2.44,0,0,0,2.522,2.35H15.13a2.441,2.441,0,0,0,2.522-2.35V23.5Z" transform="translate(0 0.001)"/><path class="a" d="M10.825,20a2.247,2.247,0,0,1-.814-.152A1.97,1.97,0,0,1,8.7,18.026V9.8a1.972,1.972,0,0,1,1.307-1.825,2.229,2.229,0,0,1,2.216.346l6.329,4.2a1.889,1.889,0,0,1,0,2.791l-.165.129L12.228,19.5a2.19,2.19,0,0,1-1.4.5m.375-9.51v6.84l5.182-3.419Z" transform="translate(4.081 2.885)"/><path class="a" d="M5.444,18.442a.963.963,0,1,1,.961.9.93.93,0,0,1-.961-.9" transform="translate(2.552 6.471)"/></g></g></svg>