<svg xmlns="http://www.w3.org/2000/svg" xmlns:xlink="http://www.w3.org/1999/xlink" width="46.552" height="46.464" viewBox="0 0 46.552 46.464"><defs><style>.a{fill:#edeff5;}.b{clip-path:url(#a);}</style><clipPath id="a"><rect class="a" width="46.552" height="46.464"/></clipPath></defs><g transform="translate(0 6)"><g class="b" transform="translate(0 -6)"><path class="a" d="M27.432.354H17.5a3.214,3.214,0,0,0-3.313,3.087V15.787L17.5,12.7h9.936a3.215,3.215,0,0,0,3.313-3.087V3.441A3.215,3.215,0,0,0,27.432.354m0,9.259H17.5V3.439h9.936Z" transform="translate(15.808 2.91)"/><path class="a" d="M19.874,32.8v2.7H3.313V3.087l16.561.041V11.2l3.313,2.143V3.087A3.205,3.205,0,0,0,19.874,0H3.313A3.2,3.2,0,0,0,0,3.087V35.5a3.205,3.205,0,0,0,3.313,3.087H19.874A3.206,3.206,0,0,0,23.187,35.5v-4.63Z" transform="translate(0 7.882)"/><path class="a" d="M11.49,23.821a2.951,2.951,0,0,1-1.069-.2,2.588,2.588,0,0,1-1.717-2.4V10.418a2.59,2.59,0,0,1,1.717-2.4,2.927,2.927,0,0,1,2.911.455l8.313,5.512a2.481,2.481,0,0,1,0,3.666l-.216.169-8.1,5.343a2.877,2.877,0,0,1-1.843.654m.492-12.492v8.984l6.807-4.491Z" transform="translate(8.089 14.123)"/><path class="a" d="M5.444,18.723a1.222,1.222,0,0,1,1.262-1.176,1.179,1.179,0,1,1,0,2.352,1.222,1.222,0,0,1-1.262-1.176" transform="translate(5.059 21.882)"/></g></g></svg>