<svg xmlns="http://www.w3.org/2000/svg" width="26.764" height="26.764" viewBox="0 0 26.764 26.764"><defs><style>.a{fill:#edeff5;}</style></defs><path class="a" d="M13.1,13.2A5.1,5.1,0,1,0,8,8.1,5.1,5.1,0,0,0,13.1,13.2Zm0-7.647A2.549,2.549,0,1,1,10.549,8.1,2.552,2.552,0,0,1,13.1,5.549Z" transform="translate(-1.628 -3)"/><path class="a" d="M27.019,25.235l-2.294-2.294a6.852,6.852,0,0,0,1.02-3.569,6.372,6.372,0,1,0-6.372,6.372,6.852,6.852,0,0,0,3.569-1.02l2.294,2.294ZM19.372,23.2A3.823,3.823,0,1,1,23.2,19.372,3.755,3.755,0,0,1,19.372,23.2Z" transform="translate(-0.255 -0.255)"/><path class="a" d="M13.3,20.372H5.549v-.637c0-1.029,4.072-2.891,8.013-3.153A8.853,8.853,0,0,1,14.8,14.009c-.108,0-.222-.009-.325-.009C10.467,14,3,15.97,3,19.735v3.186H14.066A8.826,8.826,0,0,1,13.3,20.372Z" transform="translate(-3 0.019)"/></svg>