<svg xmlns="http://www.w3.org/2000/svg" width="27.807" height="36.497" viewBox="0 0 27.807 36.497"><defs><style>.a{fill:#edeff5;}</style></defs><path class="a" d="M9.214,30.545H31.807V4.476H14.08A5.062,5.062,0,0,0,9.214,1,5.121,5.121,0,0,0,4,6.214V32.283A5.121,5.121,0,0,0,9.214,37.5H31.807V34.021H9.214a1.738,1.738,0,1,1,0-3.476ZM14.428,7.952h13.9V27.069h-13.9ZM7.476,6.214A1.642,1.642,0,0,1,9.214,4.476a1.642,1.642,0,0,1,1.738,1.738V27.069H9.214a5.142,5.142,0,0,0-1.738.348Z" transform="translate(-4 -1)"/><rect class="a" width="6.557" height="3.747" transform="translate(14.325 10.132)"/><rect class="a" width="6.557" height="2.81" transform="translate(14.325 17.626)"/></svg>