<svg xmlns="http://www.w3.org/2000/svg" xmlns:xlink="http://www.w3.org/1999/xlink" width="46.669" height="46.668" viewBox="0 0 46.669 46.668"><defs><style>.a{fill:#fff;}.b{clip-path:url(#a);}</style><clipPath id="a"><rect class="a" width="46.669" height="46.668"/></clipPath></defs><g class="b"><path class="a" d="M388.861,9.723a4.831,4.831,0,0,0,2.248-.553l2.069,2.069a1.459,1.459,0,0,0,2.063-2.063l-2.07-2.07a4.86,4.86,0,1,0-4.31,2.616m0-6.806a1.945,1.945,0,1,1-1.944,1.944,1.945,1.945,0,0,1,1.944-1.944" transform="translate(-348.999)"/><path class="a" d="M3.4,11.668H27.709a3.407,3.407,0,0,0,3.4-3.4V3.4a3.406,3.406,0,0,0-3.4-3.4H3.4A3.407,3.407,0,0,0,0,3.4V8.265a3.407,3.407,0,0,0,3.4,3.4M2.917,3.4A.486.486,0,0,1,3.4,2.918H27.709A.486.486,0,0,1,28.2,3.4V8.265a.486.486,0,0,1-.486.486H3.4a.486.486,0,0,1-.486-.486Z" transform="translate(0 -0.001)"/><path class="a" d="M198.376,170.667H174.07a3.407,3.407,0,0,0-3.4,3.4v24.306a3.407,3.407,0,0,0,3.4,3.4h24.306a3.407,3.407,0,0,0,3.4-3.4V174.07a3.407,3.407,0,0,0-3.4-3.4m.486,27.709a.486.486,0,0,1-.486.486H174.07a.486.486,0,0,1-.486-.486V174.07a.486.486,0,0,1,.486-.486h24.306a.486.486,0,0,1,.486.486Z" transform="translate(-155.111 -155.111)"/><path class="a" d="M312.25,261.833a2.917,2.917,0,1,0-2.917-2.917,2.92,2.92,0,0,0,2.917,2.917" transform="translate(-281.138 -232.666)"/><path class="a" d="M389.333,405.333" transform="translate(-353.846 -368.388)"/><path class="a" d="M284.917,341.333h-3.5a3.886,3.886,0,0,0-4.083,3.646v.729a1.458,1.458,0,0,0,2.917,0v-.729c0-.344.5-.729,1.167-.729h3.5c.667,0,1.167.385,1.167.729v.729a1.458,1.458,0,0,0,2.917,0v-.729a3.888,3.888,0,0,0-4.083-3.646" transform="translate(-252.055 -310.221)"/><path class="a" d="M5.833,373.333a5.833,5.833,0,1,0,5.833,5.833,5.841,5.841,0,0,0-5.833-5.833m0,8.75a2.917,2.917,0,1,1,2.917-2.917,2.92,2.92,0,0,1-2.917,2.917" transform="translate(0 -339.304)"/><path class="a" d="M10.209,234.667H1.458a1.458,1.458,0,0,0,0,2.917h8.75a1.458,1.458,0,0,0,0-2.917" transform="translate(0 -213.277)"/><path class="a" d="M10.209,298.667H1.458a1.458,1.458,0,0,0,0,2.917h8.75a1.458,1.458,0,0,0,0-2.917" transform="translate(0 -271.444)"/><path class="a" d="M10.209,170.667H1.458a1.458,1.458,0,0,0,0,2.917h8.75a1.458,1.458,0,0,0,0-2.917" transform="translate(0 -155.111)"/></g></svg>