<svg xmlns="http://www.w3.org/2000/svg" width="30.002" height="30.764" viewBox="0 0 30.002 30.764"><defs><style>.a{fill:#8287a0;}</style></defs><path class="a" d="M13.127,3.281,11.377,5.07l2.217,2.217L5,15.882A3.812,3.812,0,0,0,5,21.25l.078.078,7.9,7.856a3.812,3.812,0,0,0,5.367,0l9.451-9.451.895-.856-12.1-12.1L15.616,5.77l-.272-.233Zm2.256,5.8,9.8,9.8-8.6,8.556a1.312,1.312,0,0,1-1.867,0L6.787,19.461a1.266,1.266,0,0,1,0-1.828ZM30.162,23.155l-1.011,1.478s-.671.938-1.322,2.061a17.957,17.957,0,0,0-.895,1.75,4.425,4.425,0,0,0-.506,1.867,3.734,3.734,0,0,0,7.467,0,4.425,4.425,0,0,0-.506-1.867,17.959,17.959,0,0,0-.895-1.75c-.651-1.123-1.322-2.061-1.322-2.061Zm0,4.512c.083.136.073.126.156.272a16.961,16.961,0,0,1,.817,1.517,4.878,4.878,0,0,1,.272.856,1.245,1.245,0,0,1-2.489,0,4.878,4.878,0,0,1,.272-.856,16.962,16.962,0,0,1,.817-1.517C30.089,27.793,30.079,27.8,30.162,27.667Z" transform="translate(-3.894 -3.281)"/></svg>