<svg xmlns="http://www.w3.org/2000/svg" width="29.756" height="29.756" viewBox="0 0 29.756 29.756"><defs><style>.a{fill:#8287a0;}</style></defs><path class="a" d="M10.2,4v8.679H7.72A3.739,3.739,0,0,0,4,16.4V28.8h6.2v4.959H27.557V28.8h6.2V16.4a3.739,3.739,0,0,0-3.72-3.72h-2.48V4Zm2.48,2.48h12.4v6.2h-12.4ZM7.72,15.159H30.037a1.218,1.218,0,0,1,1.24,1.24v9.919h-3.72V21.358H10.2v4.959H6.48V16.4A1.218,1.218,0,0,1,7.72,15.159Zm1.24,1.24a1.24,1.24,0,1,0,1.24,1.24A1.242,1.242,0,0,0,8.959,16.4Zm3.72,7.439h12.4v7.439h-12.4Z" transform="translate(-4 -4)"/></svg>