<svg xmlns="http://www.w3.org/2000/svg" xmlns:xlink="http://www.w3.org/1999/xlink" width="444.838" height="604" viewBox="0 0 444.838 604"><defs><style>.a,.c{fill:none;}.b{clip-path:url(#a);}.c{stroke:#3b6ef8;stroke-miterlimit:10;stroke-width:28px;}.d{fill:#3b6ef8;}</style><clipPath id="a"><rect class="a" width="444.838" height="604"/></clipPath></defs><g class="b"><path class="c" d="M222.419,167H209.977a31.055,31.055,0,0,0-21.961,9.1l-20.7,20.7a31.055,31.055,0,0,0-9.1,21.961v78.52"/><path class="c" d="M286.623,269.162v-50.4a31.055,31.055,0,0,0-9.1-21.961l-20.7-20.7a31.057,31.057,0,0,0-21.962-9.1H222.419"/><path class="c" d="M222.419,436h12.442a31.055,31.055,0,0,0,21.961-9.1l20.7-20.7a31.053,31.053,0,0,0,9.1-21.961V340.282"/><path class="c" d="M85.314,234V179.091a31.056,31.056,0,0,1,9.1-21.961L158.444,93.1A31.055,31.055,0,0,1,180.4,84h42.014"/><path class="c" d="M222.419,84h42.014a31.055,31.055,0,0,1,21.961,9.1l64.033,64.033a31.056,31.056,0,0,1,9.1,21.961V295.236"/><path class="c" d="M359.524,295.236V424.909a31.056,31.056,0,0,1-9.1,21.961L286.394,510.9a31.059,31.059,0,0,1-21.961,9.1H222.419"/><path class="c" d="M222.419,520H180.4a31.055,31.055,0,0,1-21.961-9.1L94.411,446.87a31.055,31.055,0,0,1-9.1-21.961V295.236"/><path class="c" d="M14,292.754V139.266a31.055,31.055,0,0,1,9.1-21.961L117.305,23.1A31.055,31.055,0,0,1,139.266,14h83.153"/><path class="c" d="M278.419,14h27.153a31.055,31.055,0,0,1,21.961,9.1l94.208,94.208a31.055,31.055,0,0,1,9.1,21.961V292.754"/><path class="c" d="M430.838,292.754v171.98a31.055,31.055,0,0,1-9.1,21.961L327.533,580.9a31.055,31.055,0,0,1-21.961,9.1H212.419"/><path class="c" d="M157.419,590H139.266a31.055,31.055,0,0,1-21.961-9.1L23.1,486.7A31.055,31.055,0,0,1,14,464.734V292.754"/><path class="c" d="M158.215,297.282v86.956a31.055,31.055,0,0,0,9.1,21.961l20.7,20.7a31.061,31.061,0,0,0,21.962,9.1h12.442"/><path class="d" d="M209.727,246.11V350l26.477-.009V246.114Z"/></g></svg>