<svg xmlns="http://www.w3.org/2000/svg" xmlns:xlink="http://www.w3.org/1999/xlink" width="646.02" height="567.245" viewBox="0 0 646.02 567.245"><defs><style>.a{fill:none;}.b{clip-path:url(#a);}.c{fill:#3b6ef8;}</style><clipPath id="a"><rect class="a" width="646.02" height="567.245"/></clipPath></defs><g class="b"><path class="c" d="M642.51,170.99l-47.85-47.85a11.949,11.949,0,0,0-8.45-3.5h-35.9V83.75a11.957,11.957,0,0,0-3.5-8.46L498.95,27.44a11.919,11.919,0,0,0-8.45-3.51H411.71L391.28,3.51A11.961,11.961,0,0,0,382.83,0H191.41a12,12,0,0,0-7.47,2.62L127.4,47.86H83.75a11.957,11.957,0,0,0-8.46,3.5L3.51,123.14A11.96,11.96,0,0,0,0,131.6V239.27a11.952,11.952,0,0,0,2.78,7.67l59.81,71.779a11.992,11.992,0,0,0,9.19,4.3H198.43l44.34,44.35a11.992,11.992,0,0,0,8.46,3.5h102.2L526.425,567.245l-.035-33.375-.009-.011v-43.7H502.46v16.1h0L436.45,430.1,385.1,370.86h21.66V346.94H256.18L215.34,306.1V244.22l40.84-40.84H394.79a11.975,11.975,0,0,0,8.46-3.5l35.89-35.9-16.92-16.91-32.38,32.38H251.23a11.992,11.992,0,0,0-8.46,3.5l-47.85,47.86a11.957,11.957,0,0,0-3.5,8.46v59.81H77.38L23.93,234.94V136.55L88.7,71.78h37.95l28.88,28.88V131.6h23.93V95.71a12,12,0,0,0-3.51-8.46L149.5,60.81l46.11-36.88H377.87l11.96,11.96L362.4,63.33a11.952,11.952,0,0,0-3.5,8.45v35.89h23.92V76.74l28.89-28.88h73.83L526.39,88.7v30.94H502.46a11.992,11.992,0,0,0-8.46,3.5l-20.42,20.42h-7.01v23.93h11.96a11.925,11.925,0,0,0,8.46-3.51l20.42-20.42h73.84l40.84,40.84V389.84l-40.84,40.839H526.39V406.76a11.925,11.925,0,0,0-3.51-8.46L490.5,365.91V327.96l28.88-28.87h30.93V275.16H514.42a11.992,11.992,0,0,0-8.46,3.5l-35.883,35.883a11.977,11.977,0,0,0-3.507,8.467v23.93H438.68v23.92h27.89a11.957,11.957,0,0,0,3.5,8.46l32.39,32.39v43h23.93v-.11H586.2a11.933,11.933,0,0,0,8.46-3.5l47.85-47.85a11.942,11.942,0,0,0,3.51-8.46V179.45a11.96,11.96,0,0,0-3.51-8.46"/><path class="c" d="M446.151,230.811,413.765,263.2H287.121v23.927h131.6a11.958,11.958,0,0,0,8.458-3.505l35.89-35.89Z"/><path class="c" d="M99.215,170.994,75.288,194.921a11.962,11.962,0,0,0-3.505,8.458v23.927H95.71V208.332l16.916-16.916h66.827V167.489h-71.78a11.964,11.964,0,0,0-8.458,3.505"/><path class="c" d="M598.167,239.268a11.96,11.96,0,0,0-3.505-8.458l-23.927-23.927a11.96,11.96,0,0,0-8.459-3.5H514.423V227.3h42.9l16.917,16.916V263.2h23.927Z"/><path class="c" d="M242.773,99.215a11.962,11.962,0,0,0-3.5,8.458V131.6H263.2V112.626L280.111,95.71h18.974V71.783H275.158a11.958,11.958,0,0,0-8.458,3.505Z"/><path class="c" d="M546.808,338.48,529.89,355.4l23.927,23.925a11.963,11.963,0,0,0,8.46,3.505H586.2V358.9H567.229Z"/></g></svg>