<svg xmlns="http://www.w3.org/2000/svg" xmlns:xlink="http://www.w3.org/1999/xlink" width="575.248" height="585.626" viewBox="0 0 575.248 585.626"><defs><style>.a{fill:#3b6ef8;}.b{clip-path:url(#a);}</style><clipPath id="a"><rect class="a" width="575.248" height="585.627"/></clipPath></defs><g class="b"><path class="a" d="M529.635,574.724l-43.9-1.569a2.981,2.981,0,0,1-2.026-.894L359.7,467.669a2.986,2.986,0,0,0-4.764.677l-35.292,74.967a2.989,2.989,0,0,1-3.176,1.524l-47.555-8.806a2.986,2.986,0,0,1-2.255-1.9L125.62,137.334a2.988,2.988,0,0,1,3.85-3.84L528.555,276.549a2.991,2.991,0,0,1,1.921,2.478l5.117,47.7a2.989,2.989,0,0,1-1.569,2.956L460.451,364.3a2.987,2.987,0,0,0-.7,4.762L562.741,493.6a2.988,2.988,0,0,1,.884,2.03l1.365,43.9a2.988,2.988,0,0,1-.878,2.211l-32.261,32.113a2.984,2.984,0,0,1-2.215.868m-31.674-29.276,20.482.732a2.987,2.987,0,0,0,2.214-.869l14.962-14.894a2.993,2.993,0,0,0,.879-2.211l-.638-20.484a2.988,2.988,0,0,0-.884-2.031L412.8,362.163a2.988,2.988,0,0,1,.7-4.762l90.528-43.63a2.989,2.989,0,0,0,1.569-2.956l-1.239-11.548a2.988,2.988,0,0,0-1.92-2.478L177.376,181.52a2.988,2.988,0,0,0-3.85,3.84L287.453,509.382a2.989,2.989,0,0,0,2.257,1.9l11.7,2.167a2.989,2.989,0,0,0,3.176-1.523l43.669-90.554a2.987,2.987,0,0,1,4.765-.677L495.934,544.555a2.984,2.984,0,0,0,2.027.893" transform="translate(10.256 10.9)"/><path class="a" d="M41.373,279.893l-9.318-9.537a7.4,7.4,0,0,1,.122-10.46l44.492-43.47a7.4,7.4,0,0,1,10.46.121l9.318,9.538a7.4,7.4,0,0,1-.122,10.46L51.832,280.014a7.4,7.4,0,0,1-10.46-.121" transform="translate(2.449 17.525)"/><path class="a" d="M221.373,101.893l-9.318-9.537a7.4,7.4,0,0,1,.122-10.46l44.492-43.47a7.4,7.4,0,0,1,10.46.121l9.318,9.538a7.4,7.4,0,0,1-.122,10.46l-44.492,43.469a7.4,7.4,0,0,1-10.46-.121" transform="translate(17.168 2.97)"/><path class="a" d="M76.814,101.357l-43.361-44.6A7.4,7.4,0,0,1,33.6,46.3L43.161,37a7.4,7.4,0,0,1,10.459.147l43.361,44.6a7.4,7.4,0,0,1-.148,10.459l-9.56,9.295a7.4,7.4,0,0,1-10.459-.147" transform="translate(2.564 2.855)"/><path class="a" d="M159.966,77.146l-13.333-.156a7.4,7.4,0,0,1-7.31-7.482l.724-62.2A7.4,7.4,0,0,1,147.529,0l13.333.155a7.4,7.4,0,0,1,7.31,7.482l-.723,62.2a7.4,7.4,0,0,1-7.483,7.31" transform="translate(11.393 0)"/><path class="a" d="M69.509,171.172l-62.2-.724A7.4,7.4,0,0,1,0,162.966l.155-13.333a7.4,7.4,0,0,1,7.483-7.31l62.2.724a7.4,7.4,0,0,1,7.31,7.482l-.155,13.333a7.4,7.4,0,0,1-7.483,7.31" transform="translate(0 11.638)"/></g></svg>